<?xml version="1.0" encoding="UTF-8" standalone="no"?>
<!-- Created with Inkscape (http://www.inkscape.org/) -->

<svg
   width="1024"
   height="1024"
   viewBox="0 0 1024 1024"
   version="1.1"
   id="svg5"
   xml:space="preserve"
   inkscape:export-filename="profile.png"
   inkscape:export-xdpi="96"
   inkscape:export-ydpi="96"
   inkscape:version="1.2.1 (9c6d41e4, 2022-07-14)"
   sodipodi:docname="profile.svg"
   xmlns:inkscape="http://www.inkscape.org/namespaces/inkscape"
   xmlns:sodipodi="http://sodipodi.sourceforge.net/DTD/sodipodi-0.dtd"
   xmlns:xlink="http://www.w3.org/1999/xlink"
   xmlns="http://www.w3.org/2000/svg"
   xmlns:svg="http://www.w3.org/2000/svg"><sodipodi:namedview
     id="namedview7"
     pagecolor="#505050"
     bordercolor="#eeeeee"
     borderopacity="1"
     inkscape:showpageshadow="0"
     inkscape:pageopacity="0"
     inkscape:pagecheckerboard="0"
     inkscape:deskcolor="#505050"
     inkscape:document-units="px"
     showgrid="false"
     inkscape:zoom="0.50130749"
     inkscape:cx="256.3297"
     inkscape:cy="539.58898"
     inkscape:window-width="1920"
     inkscape:window-height="1027"
     inkscape:window-x="0"
     inkscape:window-y="25"
     inkscape:window-maximized="1"
     inkscape:current-layer="layer3" /><defs
     id="defs2"><linearGradient
       inkscape:collect="always"
       id="linearGradient13939"><stop
         style="stop-color:#feae56;stop-opacity:1;"
         offset="0"
         id="stop13935" /><stop
         style="stop-color:#fac488;stop-opacity:1;"
         offset="1"
         id="stop13937" /></linearGradient><linearGradient
       inkscape:collect="always"
       id="linearGradient10190"><stop
         style="stop-color:#ff0b27;stop-opacity:1;"
         offset="0"
         id="stop10186" /><stop
         style="stop-color:#760018;stop-opacity:1;"
         offset="1"
         id="stop10188" /></linearGradient><radialGradient
       inkscape:collect="always"
       xlink:href="#linearGradient10190"
       id="radialGradient10192"
       cx="119.74157"
       cy="110.24141"
       fx="119.74157"
       fy="110.24141"
       r="34.63599"
       gradientUnits="userSpaceOnUse"
       gradientTransform="matrix(21.475066,0,0,21.475066,-2057.1211,-1871.6834)" /><radialGradient
       inkscape:collect="always"
       xlink:href="#linearGradient13939"
       id="radialGradient13941"
       cx="104.39641"
       cy="84.522301"
       fx="104.39641"
       fy="84.522301"
       r="24.938075"
       gradientTransform="matrix(38.868201,-33.672734,6.55346,6.8461002,-4380.5837,3184.623)"
       gradientUnits="userSpaceOnUse" /></defs><g
     inkscape:groupmode="layer"
     id="layer3"
     inkscape:label="Layer 3"
     style="display:inline;opacity:1"><rect
       style="display:inline;opacity:1;fill:url(#radialGradient10192);fill-opacity:1;fill-rule:nonzero;stroke:none;stroke-width:36.1211;stroke-linecap:butt;stroke-linejoin:miter;stroke-dasharray:none;stroke-dashoffset:40.7931;stroke-opacity:1"
       id="rect10183"
       width="1487.6201"
       height="1487.6201"
       x="-229.47313"
       y="-248.05193"
       inkscape:label="background" /><path
       style="display:inline;opacity:1;fill:#58a739;fill-opacity:1;stroke:#000000;stroke-width:26.2411;stroke-linecap:butt;stroke-linejoin:miter;stroke-dasharray:none;stroke-dashoffset:40.7931;stroke-opacity:1"
       d="M 749.37317,1043.7802 741.5772,723.95681 238.79921,684.84137 235.98252,1044.4035 Z"
       id="path7973"
       sodipodi:nodetypes="ccccc"
       inkscape:label="tshirt" /><ellipse
       style="display:inline;opacity:1;fill:url(#radialGradient13941);fill-opacity:1;stroke:#000000;stroke-width:28.9871;stroke-linecap:round;stroke-linejoin:round;stroke-dasharray:none;stroke-dashoffset:40.7931;stroke-opacity:1"
       id="path7609"
       cx="526.9046"
       cy="493.49747"
       rx="380.10345"
       ry="362.35623" /><g
       id="g7947"
       inkscape:label="face-elements"
       style="display:inline;opacity:1;stroke-width:0.999999;stroke-dasharray:none"
       transform="matrix(15.819342,0,0,16.569628,-1385.528,-1317.2422)"><path
         style="opacity:1;fill:#000000;fill-opacity:1;stroke:none;stroke-width:0.999999;stroke-linecap:round;stroke-linejoin:round;stroke-dasharray:none;stroke-dashoffset:40.7931;stroke-opacity:1"
         d="m 130.74235,109.72691 c -0.86993,-1.62317 -0.37877,-4.23121 2.38979,-4.45838 1.34134,-0.11006 3.41466,0.37154 3.10595,4.04702 -1.87397,-0.26086 -3.71019,-0.16451 -5.49574,0.41136 z"
         id="path7754"
         sodipodi:nodetypes="cscc" /><path
         style="opacity:1;fill:#000000;fill-opacity:1;stroke:#000000;stroke-width:0.999999;stroke-linecap:round;stroke-linejoin:round;stroke-dasharray:none;stroke-dashoffset:40.7931;stroke-opacity:1"
         d="m 137.21117,99.085856 c -2.87275,-3.604773 -8.33038,-1.421312 -8.68038,0.617028 2.22186,-2.092675 5.40823,-2.721179 8.68038,-0.617028 z"
         id="path7870"
         sodipodi:nodetypes="ccc" /><path
         style="opacity:1;fill:none;fill-opacity:1;stroke:#000000;stroke-width:0.999999;stroke-linecap:round;stroke-linejoin:round;stroke-dasharray:none;stroke-dashoffset:40.7931;stroke-opacity:1"
         d="m 122.33841,104.37932 c -3.21616,2.37399 -6.58638,2.39848 -9.02318,2.13254 1.14884,-0.66292 5.6412,0.71472 9.02318,-2.13254 z"
         id="path7872"
         sodipodi:nodetypes="ccc" /><path
         id="path7876"
         style="opacity:1;fill:none;fill-opacity:1;stroke:#000000;stroke-width:0.999999;stroke-linecap:round;stroke-linejoin:round;stroke-dasharray:none;stroke-dashoffset:40.7931;stroke-opacity:1"
         d="m 119.99402,107.78914 c 1.33272,0.0746 1.89674,0.33793 1.89961,0.67577 -2.52372,0.11277 -6.39093,0.4092 -8.60042,0.70996 l 8.61309,-0.75496 c -0.11707,0.53904 -0.55909,0.95083 -1.11608,1.3176 0.64802,-0.48968 1.12074,-0.94153 1.10244,-1.28836 -0.0186,-0.35166 -0.54195,-0.59521 -1.89864,-0.66001 z"
         sodipodi:nodetypes="cccccsc" /><path
         style="opacity:1;fill:none;fill-opacity:1;stroke:#000000;stroke-width:0.999999;stroke-linecap:round;stroke-linejoin:round;stroke-dasharray:none;stroke-dashoffset:40.7931;stroke-opacity:1"
         d="m 136.02799,113.31 c 0.10553,0.29703 -0.0259,0.57759 -0.17693,0.64951 -5.91996,2.00995 -12.40725,2.25407 -18.2083,2.03774 -0.40063,-0.0605 -0.63006,-0.42635 -0.47945,-0.58718"
         id="path7940"
         sodipodi:nodetypes="cccc" /></g><path
       style="display:inline;opacity:1;fill:#000013;fill-opacity:1;stroke:none;stroke-width:26.2411;stroke-linecap:butt;stroke-linejoin:miter;stroke-dasharray:none;stroke-dashoffset:40.7931;stroke-opacity:1"
       d="m 516.74318,679.62501 c 8.37848,-0.9578 50.05088,-1.49476 54.77176,-2.92583 12.23292,-5.25168 1.50947,-14.04805 -0.93588,-14.92943 -23.43074,-6.10966 -24.7304,-2.14072 -27.44973,1.76485 -10.84854,0.56921 -27.29077,-0.34022 -29.67301,-2.697 -2.90152,-9.1434 -20.098,-12.7892 -47.49128,3.85636 -7.18296,9.4538 -271.76503,-0.29991 -444.286649,77.82839 C -13.109264,764.844 1.4595404,781.98753 18.192896,798.90384 48.595262,824.46108 270.92103,773.92982 257.4321,740.12091 l -4.89384,-13.29746 c 19.79369,2.16025 227.26879,-25.1743 228.22593,-19.67267 8.61291,23.00388 35.44465,5.01367 33.48535,-0.12899 -7.4198,-25.17684 -8.99404,-26.70079 2.48972,-27.39336 z"
       id="path8775"
       sodipodi:nodetypes="cccccccccccccc"
       inkscape:label="arm-on-left" /><path
       style="opacity:1;fill:#000013;fill-opacity:1;stroke:none;stroke-width:26.2411;stroke-linecap:butt;stroke-linejoin:miter;stroke-dasharray:none;stroke-dashoffset:40.7931;stroke-opacity:1"
       d="m 813.87935,747.84126 c 49.70129,1.10132 63.08621,-13.41499 80.6637,-22.87166 15.38909,-9.04227 106.11925,-36.70124 174.77135,-56.38148 l -0.9963,-49.99884 c -80.69171,22.94537 -163.25947,52.06958 -236.01595,79.25332 z"
       id="path10072"
       sodipodi:nodetypes="cccccc"
       inkscape:label="arm-on-right" /></g></svg>
